<?xml version="1.0" standalone="no"?>
<!DOCTYPE svg PUBLIC "-//W3C//DTD SVG 20010904//EN"
 "http://www.w3.org/TR/2001/REC-SVG-20010904/DTD/svg10.dtd">
<svg version="1.0" xmlns="http://www.w3.org/2000/svg"
 width="1320.000000pt" height="1000.000000pt" viewBox="0 0 1320.000000 1000.000000"
 preserveAspectRatio="xMidYMid meet">

<g transform="translate(0.000000,1000.000000) scale(0.100000,-0.100000)"
fill="#000000" stroke="none">
<path d="M2175 5557 l-290 -52 -3 -413 -2 -414 47 -71 c61 -94 212 -243 340
-337 137 -99 279 -180 318 -180 22 0 65 21 135 66 208 131 386 290 503 446
l57 77 0 410 0 411 -22 5 c-13 2 -152 27 -309 55 -370 65 -391 65 -774 -3z
m735 -42 c140 -25 267 -47 283 -51 l27 -6 0 -388 0 -388 -44 -59 c-58 -76
-231 -244 -326 -315 -95 -71 -249 -168 -267 -168 -40 0 -255 140 -394 257 -93
78 -170 163 -221 242 l-28 45 0 388 0 387 33 6 c17 3 140 25 272 49 313 57
345 57 665 1z"/>
<path d="M2235 5446 l-230 -41 -3 -352 -2 -351 59 -75 c86 -108 357 -335 476
-398 l41 -22 75 51 c164 110 323 249 440 385 l59 68 0 344 c0 189 -3 346 -8
349 -4 2 -111 23 -238 45 -302 53 -360 53 -669 -3z m474 -21 c3 -3 -141 -152
-319 -331 l-325 -324 -3 72 -3 72 263 264 263 264 59 -6 c33 -3 62 -8 65 -11z
m-517 -158 l-132 -132 0 113 c0 61 1 112 3 113 51 11 253 45 257 42 2 -2 -55
-63 -128 -136z m825 104 c8 -4 -137 -157 -397 -416 l-410 -410 -37 38 -38 37
385 385 385 386 50 -7 c28 -3 56 -9 62 -13z m83 -239 l0 -67 -344 -344 c-377
-377 -342 -351 -404 -297 l-23 20 378 378 c208 208 381 378 385 378 5 0 8 -30
8 -68z m0 -355 c0 -51 -2 -55 -67 -128 -91 -101 -198 -197 -318 -287 -118 -88
-141 -100 -157 -84 -10 10 48 73 257 282 149 149 273 270 277 270 5 0 8 -24 8
-53z"/>
<path d="M4041 5154 c-99 -35 -154 -108 -154 -204 0 -110 59 -174 210 -224
109 -36 140 -57 152 -103 15 -53 -10 -101 -69 -130 -71 -37 -157 -25 -209 29
l-27 28 -40 -35 -39 -35 38 -34 c51 -45 114 -66 201 -66 152 0 256 94 256 230
0 105 -50 159 -193 206 -111 36 -135 49 -157 87 -53 86 10 167 130 167 54 0
81 -10 116 -41 20 -19 21 -18 58 20 l38 39 -41 30 c-69 50 -185 65 -270 36z"/>
<path d="M7449 5160 c-226 -41 -371 -321 -277 -539 68 -161 213 -249 392 -239
91 5 159 34 216 93 l31 32 -38 31 -38 30 -39 -34 c-102 -89 -261 -82 -357 15
-146 147 -106 413 76 497 91 43 213 28 276 -32 l26 -25 34 27 c19 16 36 30 39
32 11 9 -84 82 -127 96 -58 20 -154 27 -214 16z"/>
<path d="M10880 4970 l0 -70 -55 0 -55 0 0 -40 0 -40 55 0 55 0 1 -132 c1
-179 9 -233 41 -265 30 -29 95 -44 153 -34 39 6 40 8 43 48 l3 42 -48 -5 c-84
-10 -87 -3 -91 185 l-4 161 71 0 71 0 0 40 0 40 -70 0 -70 0 0 70 0 70 -50 0
-50 0 0 -70z"/>
<path d="M4634 4900 c-50 -16 -130 -94 -151 -148 -22 -57 -22 -161 -1 -213 23
-52 70 -101 124 -128 95 -48 239 -26 307 46 l28 30 -34 26 -35 26 -18 -20
c-31 -35 -75 -52 -131 -51 -82 1 -133 39 -157 120 l-7 22 207 0 207 0 -6 63
c-10 90 -50 164 -111 202 -41 25 -61 30 -120 32 -39 1 -85 -2 -102 -7z m171
-84 c31 -20 51 -52 60 -93 l7 -33 -157 0 -156 0 7 23 c19 63 53 99 113 118 36
11 97 4 126 -15z"/>
<path d="M5232 4898 c-52 -18 -128 -92 -149 -146 -21 -55 -23 -150 -4 -206 32
-94 135 -159 251 -159 69 0 143 25 169 57 13 15 11 20 -15 46 l-29 30 -49 -25
c-27 -14 -65 -25 -84 -25 -168 0 -222 257 -70 336 44 23 119 18 162 -11 l36
-25 32 29 c29 25 31 31 18 46 -42 51 -189 80 -268 53z"/>
<path d="M6364 4891 c-17 -10 -40 -31 -52 -46 l-22 -28 0 42 0 41 -50 0 -50 0
0 -250 0 -250 50 0 50 0 0 153 c0 125 3 158 18 187 21 43 72 70 130 70 l42 0
0 50 0 50 -42 0 c-24 0 -56 -8 -74 -19z"/>
<path d="M6708 4896 c-94 -34 -168 -144 -168 -251 0 -57 30 -135 68 -177 52
-57 110 -81 197 -81 81 1 126 17 179 64 l38 33 -33 27 -33 27 -35 -28 c-45
-35 -97 -50 -147 -41 -68 13 -107 48 -128 118 l-7 23 203 2 203 3 -3 60 c-7
144 -100 234 -242 234 -30 0 -71 -6 -92 -13z m177 -80 c26 -17 48 -54 59 -98
l6 -28 -155 0 c-100 0 -155 4 -155 10 0 21 28 76 48 93 51 46 145 57 197 23z"/>
<path d="M8068 4897 c-131 -49 -205 -206 -159 -341 45 -132 229 -208 362 -149
54 24 122 96 140 149 19 56 16 151 -6 199 -24 50 -79 105 -130 130 -50 24
-157 30 -207 12z m208 -119 c83 -91 62 -243 -40 -289 -54 -24 -100 -24 -154 2
-92 45 -121 194 -53 273 37 44 73 57 145 54 64 -4 70 -6 102 -40z"/>
<path d="M8722 4889 c-23 -12 -47 -30 -53 -40 -15 -30 -29 -22 -29 16 0 35 0
35 -45 35 l-45 0 0 -250 0 -250 45 0 45 0 0 118 c0 173 12 230 55 270 30 27
42 32 86 32 107 0 119 -25 119 -250 l0 -170 50 0 50 0 0 173 c0 188 -7 230
-47 278 -52 61 -151 77 -231 38z"/>
<path d="M9325 4896 c-17 -7 -43 -28 -58 -45 l-27 -33 0 41 0 41 -50 0 -50 0
0 -250 0 -250 50 0 50 0 0 155 c0 177 9 213 62 245 49 30 127 28 157 -4 33
-35 40 -82 41 -248 l0 -148 45 0 45 0 0 188 c0 178 -1 191 -23 232 -41 78
-156 114 -242 76z"/>
<path d="M9865 4891 c-50 -22 -99 -70 -128 -125 -31 -58 -31 -184 0 -241 50
-93 127 -138 238 -138 80 1 126 17 179 63 l37 33 -28 23 c-35 29 -38 29 -76 0
-102 -77 -244 -37 -272 77 l-7 27 201 0 201 0 0 51 c0 29 -6 70 -12 93 -16 54
-93 131 -144 145 -59 16 -144 13 -189 -8z m170 -65 c40 -17 64 -50 72 -100 l6
-36 -152 0 c-165 0 -167 1 -137 58 19 38 48 62 93 78 49 17 76 17 118 0z"/>
<path d="M10488 4900 c-176 -53 -238 -300 -110 -434 53 -56 112 -79 197 -79
72 0 119 15 165 52 l25 20 -30 30 -30 31 -50 -26 c-39 -20 -60 -25 -98 -21
-60 5 -95 30 -124 87 -45 87 -17 201 57 242 46 25 134 21 176 -9 l29 -21 34
30 c31 28 32 30 16 48 -42 46 -181 73 -257 50z"/>
<path d="M5600 4713 c0 -169 2 -191 21 -230 11 -23 33 -51 47 -62 74 -52 184
-46 247 14 l35 32 0 -33 0 -34 50 0 50 0 0 250 0 250 -50 0 -50 0 0 -163 c0
-184 -9 -215 -71 -249 -46 -26 -112 -19 -146 15 -34 33 -42 84 -43 255 l0 142
-45 0 -45 0 0 -187z"/>
</g>
</svg>
